<svg width="29" height="26" viewBox="0 0 29 26" fill="none" xmlns="http://www.w3.org/2000/svg">
<path d="M1.26361 4.75556H27.9728C28.5402 4.75556 29.0001 4.29566 29.0001 3.72828V1.16009C29.0001 0.592712 28.5402 0.132812 27.9728 0.132812H1.26361C0.696227 0.132812 0.236328 0.592712 0.236328 1.16009V3.72828C0.236328 4.29566 0.696227 4.75556 1.26361 4.75556ZM1.26361 15.0283H27.9728C28.5402 15.0283 29.0001 14.5684 29.0001 14.0011V11.4329C29.0001 10.8655 28.5402 10.4056 27.9728 10.4056H1.26361C0.696227 10.4056 0.236328 10.8655 0.236328 11.4329V14.0011C0.236328 14.5684 0.696227 15.0283 1.26361 15.0283ZM1.26361 25.3011H27.9728C28.5402 25.3011 29.0001 24.8412 29.0001 24.2738V21.7056C29.0001 21.1383 28.5402 20.6784 27.9728 20.6784H1.26361C0.696227 20.6784 0.236328 21.1383 0.236328 21.7056V24.2738C0.236328 24.8412 0.696227 25.3011 1.26361 25.3011Z" fill="#C52525"/>
</svg>
