<svg width="29" height="33" viewBox="0 0 29 33" fill="none" xmlns="http://www.w3.org/2000/svg">
<path d="M14.3819 16.4364C18.9212 16.4364 22.6001 12.7575 22.6001 8.21822C22.6001 3.67894 18.9212 0 14.3819 0C9.8426 0 6.16366 3.67894 6.16366 8.21822C6.16366 12.7575 9.8426 16.4364 14.3819 16.4364ZM20.1346 18.491H19.0624C17.6371 19.1459 16.0512 19.5183 14.3819 19.5183C12.7126 19.5183 11.1331 19.1459 9.70135 18.491H8.62913C3.86513 18.491 0 22.3561 0 27.1201V29.791C0 31.4925 1.3804 32.8729 3.08183 32.8729H25.6819C27.3834 32.8729 28.7638 31.4925 28.7638 29.791V27.1201C28.7638 22.3561 24.8986 18.491 20.1346 18.491Z" fill="#C52525"/>
</svg>
